<svg width="512" height="512" viewBox="0 0 512 512" fill="none" xmlns="http://www.w3.org/2000/svg">
<g clip-path="url(#clip0_1_2)">
<path d="M512 0C460.219 3.56002 96.436 38.2002 71.0057 287.611C67.9157 314.272 66.1656 341.052 65.0156 367.852L243.887 189.161C250.137 182.911 260.288 182.911 266.538 189.161C272.788 195.411 272.788 205.541 266.538 211.791L7.03507 471.032C-2.34502 480.402 -2.34502 495.602 7.03507 504.972C16.4152 514.343 31.6253 514.343 41.0154 504.972L98.146 447.902C140.236 447.762 182.297 445.372 224.107 440.542C277.588 435.102 321.128 414.072 356.688 384.002H255.738L402.529 335.122C413.779 320.232 423.899 304.411 432.979 288.001H351.838L458.379 234.791C500.29 132.861 510.19 26.2601 512 0Z" fill="#19D08E"/>
</g>
<defs>
<clipPath id="clip0_1_2">
<rect width="512" height="512" fill="white"/>
</clipPath>
</defs>
</svg>
